<svg width="10" height="8" viewBox="0 0 10 8" fill="none" xmlns="http://www.w3.org/2000/svg">
<g clip-path="url(#clip0)">
<path d="M8.21942 3.40179L8.62937 3.79821C8.80295 3.96607 8.80295 4.2375 8.62937 4.40357L5.04144 7.875C4.86786 8.04286 4.58718 8.04286 4.41545 7.875L0.825674 4.40357C0.652095 4.23571 0.652095 3.96429 0.825674 3.79821L1.23562 3.40179C1.41104 3.23214 1.69727 3.23571 1.869 3.40893L3.98888 5.56071L3.98888 0.428571C3.98888 0.191071 4.18647 -1.99896e-07 4.43207 -1.8916e-07L5.02298 -1.63331e-07C5.26857 -1.52596e-07 5.46616 0.191071 5.46616 0.428571L5.46616 5.56071L7.58604 3.40893C7.75778 3.23393 8.044 3.23036 8.21942 3.40179Z" fill="#949096"/>
</g>
<defs>
<clipPath id="clip0">
<rect width="8" height="9.45455" fill="white" transform="translate(9.45479) rotate(90)"/>
</clipPath>
</defs>
</svg>
