<svg width="10" height="8" fill="none" xmlns="http://www.w3.org/2000/svg"><g clip-path="url(#clip0)"><path d="M8.22 3.402l.41.396a.417.417 0 010 .606L5.04 7.875a.452.452 0 01-.626 0L.825 4.404a.417.417 0 010-.606l.41-.396a.454.454 0 01.634.007l2.12 2.152V.429c0-.238.197-.429.443-.429h.591c.246 0 .443.191.443.429V5.56l2.12-2.152a.451.451 0 01.633-.007z" fill="#949096"/></g><defs><clipPath id="clip0"><path fill="#fff" transform="rotate(90 4.727 4.727)" d="M0 0h8v9.455H0z"/></clipPath></defs></svg>